<svg xmlns="http://www.w3.org/2000/svg" width="200" height="200" viewBox="0 0 200 200" fill="none"><metadata><rdf:RDF xmlns:rdf="http://www.w3.org/1999/02/22-rdf-syntax-ns#" xmlns:dc="http://purl.org/dc/elements/1.1/"><rdf:Description><dc:creator>RealFaviconGenerator</dc:creator><dc:source>https://realfavicongenerator.net</dc:source></rdf:Description></rdf:RDF></metadata><rect x="0.5" y="0.5" width="199" height="199" rx="49.9" fill="#050D18"></rect><rect x="0.5" y="0.5" width="199" height="199" rx="49.9" stroke="url(#paint0_linear_3_2)"></rect><path d="M59.2155 100.885L59.1103 94.9974L104.946 134H84.7617L43.9718 98.2563L80.2411 65.9819H100.11L59.2155 100.885ZM30.0949 65.9819H44.077V134H30.0949V65.9819Z" fill="#E8EDF2"></path><path d="M106.713 119.177V107.508H151.708V119.177H106.713ZM89.7872 134L121.746 65.9819H136.885L169.159 134H153.916L125.951 72.7101H132.68L104.926 134H89.7872Z" fill="#E8EDF2"></path><path d="M183.182 122.015V134H167.308V122.015H183.182Z" fill="#4FFFB0"></path><defs>
<linearGradient id="paint0_linear_3_2" x1="200" y1="198.566" x2="6.89212e-06" y2="1.43452" gradientUnits="userSpaceOnUse">
<stop stop-color="#0A66C2"></stop>
<stop offset="1" stop-color="#4FFFB0"></stop>
</linearGradient>
</defs></svg>